<mxfile host="app.diagrams.net" agent="Mozilla/5.0 (Windows NT 10.0; Win64; x64) AppleWebKit/537.36 (KHTML, like Gecko) Chrome/133.0.0.0 Safari/537.36 Edg/133.0.0.0" version="26.0.11">
  <diagram name="Página-1" id="NLMtDZW5SI1TXP_hYKG8">
    <mxGraphModel dx="1426" dy="781" grid="1" gridSize="10" guides="1" tooltips="1" connect="1" arrows="1" fold="1" page="1" pageScale="1" pageWidth="827" pageHeight="1169" math="0" shadow="0">
      <root>
        <mxCell id="0" />
        <mxCell id="1" parent="0" />
        <mxCell id="qusZVddiWXDS6qDD3RXI-28" value="" style="rounded=1;whiteSpace=wrap;html=1;" vertex="1" parent="1">
          <mxGeometry x="495" y="220" width="150" height="130" as="geometry" />
        </mxCell>
        <mxCell id="Ty6DkDCx2WgONQ8Fy_hY-45" style="edgeStyle=orthogonalEdgeStyle;rounded=0;orthogonalLoop=1;jettySize=auto;html=1;entryX=0;entryY=0.5;entryDx=0;entryDy=0;exitX=1;exitY=0.5;exitDx=0;exitDy=0;" parent="1" source="Ty6DkDCx2WgONQ8Fy_hY-1" target="Ty6DkDCx2WgONQ8Fy_hY-44" edge="1">
          <mxGeometry relative="1" as="geometry" />
        </mxCell>
        <mxCell id="Ty6DkDCx2WgONQ8Fy_hY-1" value="Base de dados&lt;div&gt;(FakeBR)&lt;/div&gt;" style="rounded=1;whiteSpace=wrap;html=1;" parent="1" vertex="1">
          <mxGeometry x="10" y="270" width="120" height="60" as="geometry" />
        </mxCell>
        <mxCell id="Ty6DkDCx2WgONQ8Fy_hY-6" value="Rotulagem fraca" style="rounded=1;whiteSpace=wrap;html=1;" parent="1" vertex="1">
          <mxGeometry x="510" y="270" width="120" height="60" as="geometry" />
        </mxCell>
        <mxCell id="qusZVddiWXDS6qDD3RXI-3" style="edgeStyle=orthogonalEdgeStyle;rounded=0;orthogonalLoop=1;jettySize=auto;html=1;entryX=0;entryY=0.5;entryDx=0;entryDy=0;" edge="1" parent="1" source="Ty6DkDCx2WgONQ8Fy_hY-44" target="qusZVddiWXDS6qDD3RXI-2">
          <mxGeometry relative="1" as="geometry" />
        </mxCell>
        <mxCell id="Ty6DkDCx2WgONQ8Fy_hY-44" value="Pré-processamento" style="rounded=1;whiteSpace=wrap;html=1;" parent="1" vertex="1">
          <mxGeometry x="170" y="270" width="120" height="60" as="geometry" />
        </mxCell>
        <mxCell id="qusZVddiWXDS6qDD3RXI-15" style="edgeStyle=orthogonalEdgeStyle;rounded=0;orthogonalLoop=1;jettySize=auto;html=1;entryX=0;entryY=0.5;entryDx=0;entryDy=0;" edge="1" parent="1" source="qusZVddiWXDS6qDD3RXI-2" target="Ty6DkDCx2WgONQ8Fy_hY-6">
          <mxGeometry relative="1" as="geometry" />
        </mxCell>
        <mxCell id="qusZVddiWXDS6qDD3RXI-2" value="Omissão dos rótulos" style="rounded=1;whiteSpace=wrap;html=1;" vertex="1" parent="1">
          <mxGeometry x="340" y="270" width="120" height="60" as="geometry" />
        </mxCell>
        <mxCell id="qusZVddiWXDS6qDD3RXI-16" value="" style="endArrow=classic;html=1;rounded=0;entryX=0;entryY=0.351;entryDx=0;entryDy=0;exitX=1;exitY=0.5;exitDx=0;exitDy=0;entryPerimeter=0;" edge="1" parent="1" source="Ty6DkDCx2WgONQ8Fy_hY-6" target="qusZVddiWXDS6qDD3RXI-22">
          <mxGeometry relative="1" as="geometry">
            <mxPoint x="630" y="250" as="sourcePoint" />
            <mxPoint x="780" y="250.5" as="targetPoint" />
          </mxGeometry>
        </mxCell>
        <mxCell id="qusZVddiWXDS6qDD3RXI-17" value="Sim" style="edgeLabel;resizable=0;html=1;;align=center;verticalAlign=middle;" connectable="0" vertex="1" parent="qusZVddiWXDS6qDD3RXI-16">
          <mxGeometry relative="1" as="geometry" />
        </mxCell>
        <mxCell id="qusZVddiWXDS6qDD3RXI-24" value="" style="group" vertex="1" connectable="0" parent="1">
          <mxGeometry x="750" y="112.5" width="250" height="375" as="geometry" />
        </mxCell>
        <mxCell id="qusZVddiWXDS6qDD3RXI-22" value="" style="rounded=1;whiteSpace=wrap;html=1;" vertex="1" parent="qusZVddiWXDS6qDD3RXI-24">
          <mxGeometry width="250" height="375" as="geometry" />
        </mxCell>
        <mxCell id="qusZVddiWXDS6qDD3RXI-5" value="ChatGPT" style="rounded=1;whiteSpace=wrap;html=1;" vertex="1" parent="qusZVddiWXDS6qDD3RXI-24">
          <mxGeometry x="65" y="70" width="120" height="60" as="geometry" />
        </mxCell>
        <mxCell id="qusZVddiWXDS6qDD3RXI-6" value="XGBoost" style="rounded=1;whiteSpace=wrap;html=1;" vertex="1" parent="qusZVddiWXDS6qDD3RXI-24">
          <mxGeometry x="65" y="160" width="120" height="60" as="geometry" />
        </mxCell>
        <mxCell id="qusZVddiWXDS6qDD3RXI-7" value="Regressão Logística" style="rounded=1;whiteSpace=wrap;html=1;" vertex="1" parent="qusZVddiWXDS6qDD3RXI-24">
          <mxGeometry x="65" y="250" width="120" height="60" as="geometry" />
        </mxCell>
        <mxCell id="qusZVddiWXDS6qDD3RXI-23" value="Etapa Supervisionada" style="text;html=1;align=center;verticalAlign=middle;whiteSpace=wrap;rounded=0;" vertex="1" parent="qusZVddiWXDS6qDD3RXI-24">
          <mxGeometry x="57.5" y="17.5" width="135" height="30" as="geometry" />
        </mxCell>
        <mxCell id="qusZVddiWXDS6qDD3RXI-25" value="" style="endArrow=classic;html=1;rounded=0;entryX=0.004;entryY=0.647;entryDx=0;entryDy=0;entryPerimeter=0;" edge="1" parent="1" target="qusZVddiWXDS6qDD3RXI-22">
          <mxGeometry relative="1" as="geometry">
            <mxPoint x="630" y="299.5" as="sourcePoint" />
            <mxPoint x="780" y="300" as="targetPoint" />
          </mxGeometry>
        </mxCell>
        <mxCell id="qusZVddiWXDS6qDD3RXI-26" value="Não" style="edgeLabel;resizable=0;html=1;;align=center;verticalAlign=middle;" connectable="0" vertex="1" parent="qusZVddiWXDS6qDD3RXI-25">
          <mxGeometry relative="1" as="geometry" />
        </mxCell>
        <mxCell id="qusZVddiWXDS6qDD3RXI-29" value="Etapa não supervisionada" style="text;html=1;align=center;verticalAlign=middle;whiteSpace=wrap;rounded=0;" vertex="1" parent="1">
          <mxGeometry x="502.5" y="230" width="135" height="30" as="geometry" />
        </mxCell>
      </root>
    </mxGraphModel>
  </diagram>
</mxfile>
